<svg width="33" height="32" viewBox="0 0 33 32" fill="none" xmlns="http://www.w3.org/2000/svg">
<path fill-rule="evenodd" clip-rule="evenodd" d="M16.5 2C17.0523 2 17.5 2.44772 17.5 3L17.5 29C17.5 29.5523 17.0523 30 16.5 30C15.9477 30 15.5 29.5523 15.5 29L15.5 3C15.5 2.44772 15.9477 2 16.5 2Z" fill="white"/>
<path fill-rule="evenodd" clip-rule="evenodd" d="M9.75736 6.75736C10.8826 5.63214 12.4087 5 14 5L18.5 5C19.2879 5 20.0681 5.15519 20.7961 5.45672C21.5241 5.75825 22.1855 6.20021 22.7426 6.75736C23.2998 7.31451 23.7417 7.97595 24.0433 8.7039C24.3448 9.43185 24.5 10.2121 24.5 11C24.5 11.5523 24.0523 12 23.5 12C22.9477 12 22.5 11.5523 22.5 11C22.5 10.4747 22.3965 9.95457 22.1955 9.46927C21.9945 8.98396 21.6999 8.54301 21.3284 8.17157C20.957 7.80014 20.516 7.5055 20.0307 7.30448C19.5454 7.10346 19.0253 7 18.5 7L14 7C12.9391 7 11.9217 7.42143 11.1716 8.17157C10.4214 8.92172 10 9.93913 10 11C10 12.0609 10.4214 13.0783 11.1716 13.8284C11.9217 14.5786 12.9391 15 14 15L19.5 15C21.0913 15 22.6174 15.6321 23.7426 16.7574C24.8679 17.8826 25.5 19.4087 25.5 21C25.5 22.5913 24.8679 24.1174 23.7426 25.2426C22.6174 26.3679 21.0913 27 19.5 27H13.5C11.9087 27 10.3826 26.3679 9.25736 25.2426C8.13214 24.1174 7.5 22.5913 7.5 21C7.5 20.4477 7.94772 20 8.5 20C9.05228 20 9.5 20.4477 9.5 21C9.5 22.0609 9.92143 23.0783 10.6716 23.8284C11.4217 24.5786 12.4391 25 13.5 25H19.5C20.5609 25 21.5783 24.5786 22.3284 23.8284C23.0786 23.0783 23.5 22.0609 23.5 21C23.5 19.9391 23.0786 18.9217 22.3284 18.1716C21.5783 17.4214 20.5609 17 19.5 17H14C12.4087 17 10.8826 16.3679 9.75736 15.2426C8.63214 14.1174 8 12.5913 8 11C8 9.4087 8.63214 7.88258 9.75736 6.75736Z" fill="white"/>
</svg>
