<svg width="17" height="18" viewBox="0 0 17 18" fill="none" xmlns="http://www.w3.org/2000/svg">
<path fill-rule="evenodd" clip-rule="evenodd" d="M11.7412 2.36526V4.44989L13.0429 3.12695V0.668151L12.392 0H0.676876L0.0260337 0.668151V1.31759L0 1.3363V15.0869L0.468606 15.7016L6.97703 18L7.81011 17.3719V16.0356H12.392L13.0429 15.3675V12.9488L11.7412 11.6125V14.6993H7.81011V3.62138L7.38055 3.00668L2.65023 1.3363H11.7412V2.36526ZM6.50842 16.4098L1.30168 14.6192V2.29844L6.50842 4.08909V16.4098ZM14.9954 8.65924H8.52603V7.32294H14.9433L12.8606 5.18486L13.7848 4.24944L17 7.53675V8.48552L13.7588 11.7996L12.8476 10.8641L14.9954 8.65924Z" fill="white"/>
</svg>
