<svg width="307" height="104" viewBox="0 0 307 104" fill="none" xmlns="http://www.w3.org/2000/svg">
<path d="M36.722 39.4409L31.5375 41.35L5.68992 50.8768L2.7327 51.9623V61.2083C0.542863 58.9997 0.0375154 56.2671 0.0187988 52.9543V81.2725C0.0187988 81.4409 0.0187965 81.6094 0.0749463 81.7778C0.0936629 81.965 0.131096 82.1896 0.168529 82.3767C0.505428 83.7056 1.32896 84.9035 2.54554 85.6521L2.97602 85.8955L7.44927 88.5158L32.0803 102.928C35.6177 104.986 40.091 102.441 40.091 98.3233V46.7404C40.1097 43.8955 38.8557 41.2377 36.722 39.4409ZM7.86104 63.8848C7.86104 63.2484 8.25409 62.7056 8.8343 62.481L12.1097 61.2645C13.1204 60.9088 14.1685 61.6201 14.1685 62.6682V65.4757C14.1685 66.112 13.7568 66.6548 13.1765 66.8794L9.86371 68.1147C8.89045 68.4703 7.86104 67.7591 7.86104 66.711V63.8848Z" fill="#0BB967"/>
<path d="M56.0001 3.43037V6.27528C56.0001 7.73517 55.1017 9.00791 53.7541 9.51326L12.1284 24.8983H12.1097L0.131094 29.2967C0.074944 29.3154 0.0375154 29.2967 0.0187988 29.2405V21.548C0.0187988 20.8181 0.26211 20.1256 0.692591 19.5453C0.767457 19.433 0.842328 19.3207 0.954628 19.2272C1.04821 19.0774 1.19793 18.9651 1.36638 18.8341C1.62842 18.6095 1.9466 18.4411 2.2835 18.3288L3.50008 17.8983V17.8796L3.59366 17.8608L51.3396 0.22983C53.6043 -0.631132 56.0001 1.03465 56.0001 3.43037Z" fill="#0ACF83"/>
<path d="M49.5241 19.5827L21.131 30.0827L21.0374 30.1388H21.0187L5.12835 35.9971C4.64172 36.1656 4.21123 36.3902 3.79946 36.6335C1.47861 38.0185 0.0187234 40.564 0.0187234 43.3527V46.1228L2.73263 45.1121L4.90375 44.3073L20.0642 38.711L29.6283 35.1736L43.2353 30.1576L49.2059 27.9864C49.9171 27.7244 50.6096 28.2485 50.6096 28.9784V33.6388C50.6096 34.0693 50.3663 34.4811 49.9358 34.6308L36.7032 39.4971L31.5187 41.4062L5.67112 50.933L2.7139 52.0185L0 53.0105V81.3287C0 81.4971 -2.28697e-06 81.6656 0.0561474 81.834C0.074864 82.0212 0.112297 82.2458 0.14973 82.4329C0.449196 83.818 1.29144 84.9971 2.52674 85.7271L2.99465 85.9891L2.97594 85.9329C1.81551 85.0907 1.06685 83.7057 1.06685 82.1335C1.06685 80.6549 1.74064 79.3447 2.80749 78.5025C3.10695 78.2592 3.40642 78.072 3.74331 77.9035C4.04278 77.7538 40.1096 64.4837 40.1096 64.4837L51.7139 60.1977L52.8556 59.7859C54.746 59.0747 55.9813 57.2966 55.9813 55.3126V17.2057L49.5241 19.5827ZM14.1684 65.4944C14.1684 66.1308 13.7567 66.6736 13.1765 66.8982L9.86364 68.1148C8.89038 68.4704 7.86096 67.7592 7.86096 66.711V63.9035C7.86096 63.2672 8.25401 62.7244 8.83423 62.4998L12.1096 61.2832C13.1203 60.9276 14.1684 61.6388 14.1684 62.687V65.4944Z" fill="#0ACF83"/>
<path d="M83.5284 37.9091H91.1136L99.125 57.4545H99.4659L107.477 37.9091H115.062V67H109.097V48.0653H108.855L101.327 66.858H97.2642L89.7358 47.9943H89.4943V67H83.5284V37.9091ZM129.874 67.4261C127.668 67.4261 125.76 66.9574 124.15 66.0199C122.549 65.0729 121.314 63.7566 120.442 62.071C119.571 60.3759 119.136 58.411 119.136 56.1761C119.136 53.9223 119.571 51.9527 120.442 50.267C121.314 48.572 122.549 47.2557 124.15 46.3182C125.76 45.3712 127.668 44.8977 129.874 44.8977C132.081 44.8977 133.984 45.3712 135.585 46.3182C137.194 47.2557 138.435 48.572 139.306 50.267C140.177 51.9527 140.613 53.9223 140.613 56.1761C140.613 58.411 140.177 60.3759 139.306 62.071C138.435 63.7566 137.194 65.0729 135.585 66.0199C133.984 66.9574 132.081 67.4261 129.874 67.4261ZM129.903 62.7386C130.906 62.7386 131.745 62.4545 132.417 61.8864C133.089 61.3087 133.596 60.5227 133.937 59.5284C134.287 58.5341 134.462 57.4025 134.462 56.1335C134.462 54.8646 134.287 53.733 133.937 52.7386C133.596 51.7443 133.089 50.9583 132.417 50.3807C131.745 49.803 130.906 49.5142 129.903 49.5142C128.889 49.5142 128.037 49.803 127.346 50.3807C126.664 50.9583 126.148 51.7443 125.798 52.7386C125.457 53.733 125.286 54.8646 125.286 56.1335C125.286 57.4025 125.457 58.5341 125.798 59.5284C126.148 60.5227 126.664 61.3087 127.346 61.8864C128.037 62.4545 128.889 62.7386 129.903 62.7386ZM150.599 54.3864V67H144.548V45.1818H150.315V49.0312H150.57C151.053 47.7623 151.863 46.7585 152.999 46.0199C154.136 45.2718 155.513 44.8977 157.133 44.8977C158.648 44.8977 159.969 45.2292 161.096 45.892C162.223 46.5549 163.099 47.5019 163.724 48.733C164.349 49.9545 164.661 51.4129 164.661 53.108V67H158.61V54.1875C158.62 52.8523 158.279 51.8106 157.587 51.0625C156.896 50.3049 155.944 49.9261 154.732 49.9261C153.918 49.9261 153.198 50.1013 152.573 50.4517C151.958 50.8021 151.475 51.3134 151.124 51.9858C150.783 52.6487 150.608 53.4489 150.599 54.3864ZM179.374 67.4261C177.129 67.4261 175.197 66.9716 173.578 66.0625C171.968 65.1439 170.728 63.8466 169.857 62.1705C168.985 60.4848 168.55 58.4915 168.55 56.1903C168.55 53.946 168.985 51.9763 169.857 50.2812C170.728 48.5862 171.954 47.2652 173.536 46.3182C175.126 45.3712 176.992 44.8977 179.132 44.8977C180.571 44.8977 181.911 45.1297 183.152 45.5938C184.402 46.0483 185.491 46.7348 186.419 47.6534C187.357 48.572 188.086 49.7273 188.607 51.1193C189.127 52.5019 189.388 54.1212 189.388 55.9773V57.6392H170.964V53.8892H183.692C183.692 53.018 183.502 52.2462 183.124 51.5739C182.745 50.9015 182.219 50.3759 181.547 49.9972C180.884 49.6089 180.112 49.4148 179.232 49.4148C178.313 49.4148 177.499 49.6278 176.788 50.054C176.088 50.4706 175.538 51.0341 175.141 51.7443C174.743 52.4451 174.539 53.2263 174.53 54.0881V57.6534C174.53 58.733 174.729 59.6657 175.126 60.4517C175.534 61.2377 176.107 61.8438 176.845 62.2699C177.584 62.696 178.46 62.9091 179.473 62.9091C180.145 62.9091 180.761 62.8144 181.32 62.625C181.878 62.4356 182.357 62.1515 182.754 61.7727C183.152 61.3939 183.455 60.9299 183.663 60.3807L189.26 60.75C188.976 62.0947 188.393 63.2689 187.513 64.2727C186.642 65.267 185.515 66.0436 184.132 66.6023C182.759 67.1515 181.173 67.4261 179.374 67.4261ZM196.487 75.1818C195.719 75.1818 195 75.1203 194.327 74.9972C193.665 74.8835 193.115 74.7367 192.68 74.5568L194.043 70.0398C194.754 70.2576 195.393 70.3759 195.961 70.3949C196.539 70.4138 197.036 70.2813 197.452 69.9972C197.879 69.7131 198.224 69.2301 198.489 68.5483L198.844 67.625L191.018 45.1818H197.381L201.898 61.2045H202.126L206.685 45.1818H213.092L204.612 69.358C204.204 70.5322 203.65 71.5549 202.95 72.4261C202.258 73.3068 201.382 73.9839 200.322 74.4574C199.261 74.9403 197.983 75.1818 196.487 75.1818Z" fill="white"/>
<path d="M235.592 47.3125C235.393 46.6212 235.113 46.0104 234.754 45.4801C234.394 44.9403 233.953 44.4858 233.433 44.1165C232.921 43.7377 232.334 43.4489 231.671 43.25C231.018 43.0511 230.293 42.9517 229.498 42.9517C228.011 42.9517 226.704 43.321 225.577 44.0597C224.46 44.7983 223.589 45.8731 222.964 47.2841C222.339 48.6856 222.026 50.3996 222.026 52.4261C222.026 54.4527 222.334 56.1761 222.95 57.5966C223.565 59.017 224.436 60.1013 225.563 60.8494C226.69 61.5881 228.021 61.9574 229.555 61.9574C230.947 61.9574 232.135 61.7112 233.12 61.2188C234.114 60.7169 234.872 60.0114 235.393 59.1023C235.923 58.1932 236.188 57.1184 236.188 55.8778L237.438 56.0625H229.938V51.4318H242.112V55.0966C242.112 57.6534 241.572 59.8504 240.492 61.6875C239.413 63.5152 237.926 64.9261 236.032 65.9205C234.138 66.9053 231.969 67.3977 229.526 67.3977C226.799 67.3977 224.403 66.7964 222.339 65.5938C220.274 64.3816 218.665 62.6629 217.509 60.4375C216.363 58.2027 215.79 55.5511 215.79 52.483C215.79 50.125 216.131 48.0227 216.813 46.1761C217.504 44.3201 218.47 42.7481 219.711 41.4602C220.951 40.1723 222.396 39.1922 224.043 38.5199C225.691 37.8475 227.476 37.5114 229.398 37.5114C231.046 37.5114 232.58 37.7528 234.001 38.2358C235.421 38.7093 236.681 39.3816 237.779 40.2528C238.887 41.1241 239.791 42.161 240.492 43.3636C241.193 44.5568 241.643 45.8731 241.842 47.3125H235.592ZM256.561 67.4261C254.317 67.4261 252.385 66.9716 250.766 66.0625C249.156 65.1439 247.915 63.8466 247.044 62.1705C246.173 60.4848 245.737 58.4915 245.737 56.1903C245.737 53.946 246.173 51.9763 247.044 50.2812C247.915 48.5862 249.142 47.2652 250.723 46.3182C252.314 45.3712 254.179 44.8977 256.32 44.8977C257.759 44.8977 259.099 45.1297 260.339 45.5938C261.589 46.0483 262.679 46.7348 263.607 47.6534C264.544 48.572 265.273 49.7273 265.794 51.1193C266.315 52.5019 266.575 54.1212 266.575 55.9773V57.6392H248.152V53.8892H260.879C260.879 53.018 260.69 52.2462 260.311 51.5739C259.932 50.9015 259.407 50.3759 258.734 49.9972C258.071 49.6089 257.3 49.4148 256.419 49.4148C255.5 49.4148 254.686 49.6278 253.976 50.054C253.275 50.4706 252.726 51.0341 252.328 51.7443C251.93 52.4451 251.727 53.2263 251.717 54.0881V57.6534C251.717 58.733 251.916 59.6657 252.314 60.4517C252.721 61.2377 253.294 61.8438 254.033 62.2699C254.771 62.696 255.647 62.9091 256.661 62.9091C257.333 62.9091 257.948 62.8144 258.507 62.625C259.066 62.4356 259.544 62.1515 259.942 61.7727C260.339 61.3939 260.643 60.9299 260.851 60.3807L266.447 60.75C266.163 62.0947 265.581 63.2689 264.7 64.2727C263.829 65.267 262.702 66.0436 261.32 66.6023C259.946 67.1515 258.36 67.4261 256.561 67.4261ZM288.678 51.4034L283.138 51.7443C283.043 51.2708 282.839 50.8447 282.527 50.4659C282.214 50.0777 281.803 49.7699 281.291 49.5426C280.789 49.3059 280.188 49.1875 279.487 49.1875C278.55 49.1875 277.759 49.3864 277.115 49.7841C276.471 50.1723 276.149 50.6932 276.149 51.3466C276.149 51.8674 276.357 52.3078 276.774 52.6676C277.191 53.0275 277.906 53.3163 278.919 53.5341L282.868 54.3295C284.989 54.7652 286.571 55.4659 287.612 56.4318C288.654 57.3977 289.175 58.6667 289.175 60.2386C289.175 61.6686 288.753 62.9233 287.911 64.0028C287.077 65.0824 285.931 65.9252 284.473 66.5312C283.024 67.1278 281.353 67.4261 279.459 67.4261C276.571 67.4261 274.269 66.8248 272.555 65.6222C270.851 64.41 269.852 62.7623 269.558 60.679L275.51 60.3665C275.69 61.2472 276.125 61.9195 276.817 62.3835C277.508 62.8381 278.393 63.0653 279.473 63.0653C280.534 63.0653 281.386 62.8617 282.03 62.4545C282.683 62.0379 283.015 61.5028 283.024 60.8494C283.015 60.3002 282.783 59.8504 282.328 59.5C281.874 59.1402 281.173 58.8655 280.226 58.6761L276.447 57.9233C274.317 57.4972 272.731 56.7585 271.689 55.7074C270.657 54.6562 270.141 53.3163 270.141 51.6875C270.141 50.286 270.519 49.0786 271.277 48.0653C272.044 47.0521 273.119 46.2708 274.501 45.7216C275.893 45.1723 277.522 44.8977 279.388 44.8977C282.143 44.8977 284.312 45.4801 285.893 46.6449C287.484 47.8097 288.412 49.3958 288.678 51.4034ZM304.59 45.1818V49.7273H291.451V45.1818H304.59ZM294.434 39.9545H300.485V60.2955C300.485 60.8542 300.57 61.2898 300.741 61.6023C300.911 61.9053 301.148 62.1184 301.451 62.2415C301.763 62.3646 302.123 62.4261 302.531 62.4261C302.815 62.4261 303.099 62.4025 303.383 62.3551C303.667 62.2983 303.885 62.2557 304.036 62.2273L304.988 66.7301C304.685 66.8248 304.259 66.9337 303.71 67.0568C303.16 67.1894 302.493 67.2699 301.707 67.2983C300.248 67.3551 298.97 67.161 297.871 66.7159C296.782 66.2708 295.935 65.5795 295.329 64.642C294.723 63.7045 294.424 62.5208 294.434 61.0909V39.9545Z" fill="#0ACF83"/>
</svg>
