<svg width="191" height="38" viewBox="0 0 191 38" fill="none" xmlns="http://www.w3.org/2000/svg">
<path d="M13.1151 14.0861L11.2635 14.7679L2.03224 18.1703L0.976087 18.558V21.8602C0.194002 21.0714 0.0135204 20.0955 0.00683594 18.9123V29.026C0.00683594 29.0861 0.00683512 29.1463 0.0268886 29.2064C0.0335731 29.2733 0.0469421 29.3535 0.0603111 29.4203C0.180632 29.8949 0.47475 30.3227 0.909242 30.5901L1.06298 30.677L2.66058 31.6129L11.4574 36.7599C12.7207 37.4952 14.3183 36.5861 14.3183 35.1155V16.6931C14.325 15.677 13.8772 14.7278 13.1151 14.0861ZM2.80764 22.8161C2.80764 22.5888 2.94801 22.3949 3.15523 22.3147L4.32502 21.8802C4.68598 21.7532 5.06031 22.0072 5.06031 22.3816V23.3843C5.06031 23.6115 4.91325 23.8054 4.70603 23.8856L3.52288 24.3268C3.17528 24.4538 2.80764 24.1998 2.80764 23.8254V22.8161Z" fill="#0BB967"/>
<path d="M20.0001 1.22513V2.24117C20.0001 2.76256 19.6793 3.21711 19.198 3.39759L4.3317 8.89224H4.32502L0.0469413 10.4631C0.0268878 10.4698 0.0135204 10.4631 0.00683594 10.443V7.69572C0.00683594 7.43502 0.0937327 7.1877 0.247476 6.98048C0.274214 6.94037 0.300954 6.90026 0.34106 6.86684C0.374483 6.81337 0.427956 6.77326 0.488116 6.72647C0.581699 6.64626 0.695337 6.58609 0.815658 6.54599L1.25015 6.39224V6.38556L1.28357 6.37887L18.3357 0.0820822C19.1445 -0.225404 20.0001 0.369518 20.0001 1.22513Z" fill="#0ACF83"/>
<path d="M17.6872 6.99389L7.54679 10.7439L7.51337 10.7639H7.50668L1.83155 12.8562C1.65776 12.9163 1.50401 12.9966 1.35695 13.0835C0.528074 13.5781 0.00668694 14.4872 0.00668694 15.4832V16.4725L0.975938 16.1115L1.75134 15.8241L7.16578 13.8254L10.5815 12.5621L15.4412 10.7706L17.5735 9.99522C17.8275 9.90164 18.0749 10.0888 18.0749 10.3495V12.0139C18.0749 12.1677 17.988 12.3147 17.8342 12.3682L13.1083 14.1062L11.2567 14.788L2.0254 18.1904L0.969251 18.5781L0 18.9324V29.046C0 29.1062 -8.16775e-07 29.1663 0.0200527 29.2265C0.0267371 29.2934 0.0401061 29.3736 0.0534751 29.4404C0.160427 29.9351 0.46123 30.3562 0.902406 30.6169L1.06952 30.7105L1.06284 30.6904C0.648397 30.3896 0.381017 29.895 0.381017 29.3335C0.381017 28.8054 0.621658 28.3375 1.00267 28.0367C1.10963 27.9498 1.21658 27.8829 1.3369 27.8228C1.44385 27.7693 14.3249 23.03 14.3249 23.03L18.4692 21.4992L18.877 21.3522C19.5521 21.0982 19.9933 20.4631 19.9933 19.7546V6.14496L17.6872 6.99389ZM5.06016 23.3909C5.06016 23.6182 4.9131 23.8121 4.70588 23.8923L3.52273 24.3268C3.17513 24.4538 2.80749 24.1998 2.80749 23.8254V22.8228C2.80749 22.5955 2.94786 22.4016 3.15508 22.3214L4.32487 21.8869C4.68583 21.7599 5.06016 22.0139 5.06016 22.3883V23.3909Z" fill="#0ACF83"/>
<path d="M34.7699 8.6565H40.0795L45.6875 22.3383H45.9261L51.5341 8.6565H56.8438V29.0201H52.6676V15.7659H52.4986L47.2287 28.9207H44.3849L39.1151 15.7162H38.946V29.0201H34.7699V8.6565ZM67.212 29.3184C65.6675 29.3184 64.3318 28.9903 63.2049 28.3341C62.0846 27.6712 61.2196 26.7498 60.6097 25.5699C59.9999 24.3833 59.695 23.0078 59.695 21.4434C59.695 19.8658 59.9999 18.487 60.6097 17.3071C61.2196 16.1205 62.0846 15.1991 63.2049 14.5429C64.3318 13.88 65.6675 13.5486 67.212 13.5486C68.7565 13.5486 70.0889 13.88 71.2092 14.5429C72.3361 15.1991 73.2044 16.1205 73.8143 17.3071C74.4241 18.487 74.729 19.8658 74.729 21.4434C74.729 23.0078 74.4241 24.3833 73.8143 25.5699C73.2044 26.7498 72.3361 27.6712 71.2092 28.3341C70.0889 28.9903 68.7565 29.3184 67.212 29.3184ZM67.2319 26.0372C67.9345 26.0372 68.5212 25.8383 68.9918 25.4406C69.4625 25.0362 69.8171 24.4861 70.0558 23.79C70.301 23.094 70.4237 22.3019 70.4237 21.4136C70.4237 20.5253 70.301 19.7332 70.0558 19.0372C69.8171 18.3412 69.4625 17.791 68.9918 17.3866C68.5212 16.9823 67.9345 16.7801 67.2319 16.7801C66.5226 16.7801 65.926 16.9823 65.4421 17.3866C64.9648 17.791 64.6036 18.3412 64.3583 19.0372C64.1197 19.7332 64.0004 20.5253 64.0004 21.4136C64.0004 22.3019 64.1197 23.094 64.3583 23.79C64.6036 24.4861 64.9648 25.0362 65.4421 25.4406C65.926 25.8383 66.5226 26.0372 67.2319 26.0372ZM81.7191 20.1906V29.0201H77.4833V13.7474H81.5202V16.442H81.6992C82.0373 15.5538 82.604 14.8511 83.3995 14.3341C84.195 13.8104 85.1594 13.5486 86.293 13.5486C87.3536 13.5486 88.2783 13.7806 89.0671 14.2446C89.8559 14.7086 90.4691 15.3715 90.9066 16.2332C91.3441 17.0883 91.5629 18.1092 91.5629 19.2957V29.0201H87.3271V20.0514C87.3337 19.1167 87.0951 18.3876 86.6112 17.8639C86.1272 17.3336 85.4611 17.0684 84.6126 17.0684C84.0425 17.0684 83.5387 17.1911 83.1012 17.4363C82.6703 17.6816 82.3323 18.0396 82.087 18.5102C81.8484 18.9742 81.7257 19.5343 81.7191 20.1906ZM101.862 29.3184C100.29 29.3184 98.9382 29.0003 97.8047 28.3639C96.6778 27.7209 95.8094 26.8128 95.1996 25.6395C94.5897 24.4595 94.2848 23.0642 94.2848 21.4534C94.2848 19.8824 94.5897 18.5036 95.1996 17.317C95.8094 16.1305 96.6679 15.2057 97.7749 14.5429C98.8885 13.88 100.194 13.5486 101.692 13.5486C102.7 13.5486 103.638 13.711 104.506 14.0358C105.381 14.3539 106.144 14.8345 106.793 15.4775C107.45 16.1205 107.96 16.9292 108.325 17.9037C108.689 18.8715 108.871 20.005 108.871 21.3042V22.4676H95.9751V19.8426H104.884C104.884 19.2327 104.752 18.6925 104.487 18.2218C104.221 17.7512 103.853 17.3833 103.383 17.1182C102.919 16.8464 102.379 16.7105 101.762 16.7105C101.119 16.7105 100.549 16.8596 100.052 17.1579C99.5613 17.4496 99.1768 17.844 98.8984 18.3412C98.62 18.8317 98.4775 19.3786 98.4709 19.9818V22.4775C98.4709 23.2332 98.6101 23.8861 98.8885 24.4363C99.1735 24.9865 99.5746 25.4108 100.092 25.7091C100.609 26.0074 101.222 26.1565 101.931 26.1565C102.402 26.1565 102.833 26.0902 103.224 25.9576C103.615 25.8251 103.95 25.6262 104.228 25.3611C104.506 25.0959 104.719 24.7711 104.864 24.3866L108.782 24.6451C108.583 25.5864 108.175 26.4084 107.559 27.1111C106.949 27.8071 106.16 28.3506 105.192 28.7417C104.231 29.1262 103.121 29.3184 101.862 29.3184ZM113.841 34.7474C113.304 34.7474 112.8 34.7043 112.329 34.6182C111.865 34.5386 111.481 34.4359 111.176 34.3099L112.13 31.148C112.627 31.3004 113.075 31.3833 113.473 31.3966C113.877 31.4098 114.225 31.317 114.517 31.1182C114.815 30.9193 115.057 30.5812 115.243 30.1039L115.491 29.4576L110.012 13.7474H114.467L117.629 24.9633H117.788L120.98 13.7474H125.464L119.528 30.6707C119.243 31.4927 118.855 32.2086 118.365 32.8184C117.881 33.4349 117.268 33.9089 116.525 34.2403C115.783 34.5784 114.888 34.7474 113.841 34.7474Z" fill="white"/>
<path d="M141.214 15.2389C141.075 14.755 140.879 14.3274 140.627 13.9562C140.376 13.5784 140.067 13.2602 139.703 13.0017C139.345 12.7365 138.934 12.5343 138.47 12.3951C138.012 12.2559 137.505 12.1863 136.949 12.1863C135.908 12.1863 134.993 12.4449 134.204 12.9619C133.422 13.4789 132.812 14.2313 132.375 15.219C131.937 16.2001 131.718 17.3999 131.718 18.8184C131.718 20.237 131.934 21.4434 132.365 22.4378C132.796 23.4321 133.405 24.1911 134.194 24.7147C134.983 25.2318 135.914 25.4903 136.988 25.4903C137.963 25.4903 138.795 25.318 139.484 24.9733C140.18 24.6219 140.71 24.1281 141.075 23.4917C141.446 22.8554 141.632 22.103 141.632 21.2346L142.507 21.3639H137.257V18.1224H145.778V20.6878C145.778 22.4775 145.4 24.0154 144.645 25.3014C143.889 26.5807 142.848 27.5684 141.522 28.2645C140.197 28.9539 138.679 29.2986 136.968 29.2986C135.059 29.2986 133.382 28.8776 131.937 28.0358C130.492 27.1873 129.365 25.9842 128.556 24.4264C127.754 22.862 127.353 21.0059 127.353 18.8582C127.353 17.2076 127.592 15.7361 128.069 14.4434C128.553 13.1442 129.229 12.0438 130.098 11.1423C130.966 10.2408 131.977 9.5547 133.13 9.08406C134.284 8.61342 135.533 8.3781 136.879 8.3781C138.032 8.3781 139.106 8.54713 140.1 8.8852C141.095 9.21664 141.976 9.68728 142.745 10.2971C143.521 10.907 144.154 11.6328 144.645 12.4747C145.135 13.3099 145.45 14.2313 145.589 15.2389H141.214ZM155.893 29.3184C154.322 29.3184 152.969 29.0003 151.836 28.3639C150.709 27.7209 149.841 26.8128 149.231 25.6395C148.621 24.4595 148.316 23.0642 148.316 21.4534C148.316 19.8824 148.621 18.5036 149.231 17.317C149.841 16.1305 150.699 15.2057 151.806 14.5429C152.92 13.88 154.226 13.5486 155.724 13.5486C156.731 13.5486 157.669 13.711 158.538 14.0358C159.413 14.3539 160.175 14.8345 160.825 15.4775C161.481 16.1205 161.991 16.9292 162.356 17.9037C162.72 18.8715 162.903 20.005 162.903 21.3042V22.4676H150.006V19.8426H158.915C158.915 19.2327 158.783 18.6925 158.518 18.2218C158.253 17.7512 157.885 17.3833 157.414 17.1182C156.95 16.8464 156.41 16.7105 155.793 16.7105C155.15 16.7105 154.58 16.8596 154.083 17.1579C153.593 17.4496 153.208 17.844 152.93 18.3412C152.651 18.8317 152.509 19.3786 152.502 19.9818V22.4775C152.502 23.2332 152.641 23.8861 152.92 24.4363C153.205 24.9865 153.606 25.4108 154.123 25.7091C154.64 26.0074 155.253 26.1565 155.962 26.1565C156.433 26.1565 156.864 26.0902 157.255 25.9576C157.646 25.8251 157.981 25.6262 158.259 25.3611C158.538 25.0959 158.75 24.7711 158.896 24.3866L162.813 24.6451C162.614 25.5864 162.207 26.4084 161.59 27.1111C160.98 27.8071 160.192 28.3506 159.224 28.7417C158.263 29.1262 157.152 29.3184 155.893 29.3184ZM178.374 18.1025L174.496 18.3412C174.43 18.0097 174.288 17.7114 174.069 17.4463C173.85 17.1745 173.562 16.9591 173.204 16.8C172.853 16.6343 172.432 16.5514 171.941 16.5514C171.285 16.5514 170.731 16.6906 170.281 16.969C169.83 17.2408 169.604 17.6054 169.604 18.0628C169.604 18.4273 169.75 18.7356 170.042 18.9875C170.334 19.2394 170.834 19.4415 171.543 19.594L174.308 20.1508C175.792 20.4557 176.899 20.9463 177.629 21.6224C178.358 22.2986 178.722 23.1868 178.722 24.2872C178.722 25.2881 178.427 26.1664 177.837 26.9221C177.254 27.6778 176.452 28.2678 175.431 28.692C174.417 29.1096 173.247 29.3184 171.921 29.3184C169.899 29.3184 168.289 28.8975 167.089 28.0557C165.896 27.2072 165.196 26.0538 164.991 24.5954L169.157 24.3767C169.283 24.9932 169.588 25.4638 170.072 25.7886C170.556 26.1068 171.175 26.2659 171.931 26.2659C172.674 26.2659 173.27 26.1234 173.721 25.8383C174.178 25.5467 174.41 25.1721 174.417 24.7147C174.41 24.3303 174.248 24.0154 173.93 23.7701C173.612 23.5182 173.121 23.326 172.458 23.1934L169.813 22.6664C168.322 22.3682 167.211 21.8511 166.482 21.1153C165.76 20.3795 165.398 19.4415 165.398 18.3014C165.398 17.3203 165.664 16.4752 166.194 15.7659C166.731 15.0566 167.483 14.5097 168.451 14.1253C169.425 13.7408 170.566 13.5486 171.871 13.5486C173.8 13.5486 175.318 13.9562 176.425 14.7716C177.539 15.5869 178.189 16.6972 178.374 18.1025ZM189.513 13.7474V16.9292H180.316V13.7474H189.513ZM182.404 10.0883H186.64V24.327C186.64 24.7181 186.699 25.023 186.819 25.2417C186.938 25.4539 187.104 25.603 187.316 25.6892C187.534 25.7753 187.786 25.8184 188.071 25.8184C188.27 25.8184 188.469 25.8019 188.668 25.7687C188.867 25.7289 189.019 25.6991 189.125 25.6792L189.792 28.8312C189.579 28.8975 189.281 28.9737 188.897 29.0599C188.512 29.1527 188.045 29.2091 187.495 29.2289C186.474 29.2687 185.579 29.1328 184.81 28.8213C184.048 28.5097 183.454 28.0258 183.03 27.3696C182.606 26.7133 182.397 25.8847 182.404 24.8838V10.0883Z" fill="#0ACF83"/>
</svg>
