<svg width="33" height="32" viewBox="0 0 33 32" fill="none" xmlns="http://www.w3.org/2000/svg">
<path fill-rule="evenodd" clip-rule="evenodd" d="M16.5 5C10.4249 5 5.5 9.92487 5.5 16C5.5 22.0751 10.4249 27 16.5 27C22.5751 27 27.5 22.0751 27.5 16C27.5 9.92487 22.5751 5 16.5 5ZM3.5 16C3.5 8.8203 9.3203 3 16.5 3C23.6797 3 29.5 8.8203 29.5 16C29.5 23.1797 23.6797 29 16.5 29C9.3203 29 3.5 23.1797 3.5 16Z" fill="#F75A68"/>
<path fill-rule="evenodd" clip-rule="evenodd" d="M11.5555 16.0553C11.946 15.6648 12.5792 15.6648 12.9697 16.0553L16.5001 19.5857L20.0305 16.0553C20.421 15.6648 21.0542 15.6648 21.4447 16.0553C21.8352 16.4459 21.8352 17.079 21.4447 17.4696L17.2072 21.7071C16.8167 22.0976 16.1835 22.0976 15.793 21.7071L11.5555 17.4696C11.1649 17.079 11.1649 16.4459 11.5555 16.0553Z" fill="#F75A68"/>
<path fill-rule="evenodd" clip-rule="evenodd" d="M16.5001 10C17.0524 10 17.5001 10.4477 17.5001 11L17.5001 21C17.5001 21.5523 17.0524 22 16.5001 22C15.9478 22 15.5001 21.5523 15.5001 21L15.5001 11C15.5001 10.4477 15.9478 10 16.5001 10Z" fill="#F75A68"/>
</svg>
