<svg width="19" height="19" viewBox="0 0 19 19" fill="none" xmlns="http://www.w3.org/2000/svg">
<path d="M10.9929 4.61429L10.3143 1.35714H8.68571L8.00714 4.61429L7.05714 5.02143L4.34286 3.25714L3.12143 4.34286L4.88571 7.05714L4.61429 8.00714L1.35714 8.68571V10.3143L4.61429 10.9929L5.02143 12.0786L3.25714 14.7929L4.34286 15.8786L7.05714 14.1143L8.14286 14.5214L8.68571 17.6429H10.3143L10.9929 14.3857L12.0786 13.9786L14.7929 15.7429L15.8786 14.6571L14.1143 11.9429L14.5214 10.8571L17.6429 10.3143V8.68571L14.3857 8.00714L13.9786 6.92143L15.7429 4.20714L14.6571 3.12143L11.9429 4.88571L10.9929 4.61429ZM11.4 0L12.0786 3.25714L14.9286 1.49286L17.6429 4.20714L15.7429 7.05714L19 7.6V11.4L15.7429 12.0786L17.6429 14.9286L14.9286 17.6429L12.0786 15.7429L11.4 19H7.6L6.92143 15.7429L4.07143 17.5071L1.35714 14.7929L3.25714 11.9429L0 11.4V7.6L3.25714 6.92143L1.49286 4.07143L4.20714 1.35714L7.05714 3.25714L7.6 0H11.4ZM12.2143 9.5C12.2143 10.9929 10.9929 12.2143 9.5 12.2143C8.00714 12.2143 6.78571 10.9929 6.78571 9.5C6.78571 8.00714 8.00714 6.78571 9.5 6.78571C10.9929 6.78571 12.2143 8.00714 12.2143 9.5ZM9.5 10.8571C10.3143 10.8571 10.8571 10.3143 10.8571 9.5C10.8571 8.68571 10.3143 8.14286 9.5 8.14286C8.68571 8.14286 8.14286 8.68571 8.14286 9.5C8.14286 10.3143 8.68571 10.8571 9.5 10.8571Z" fill="white"/>
</svg>
