<svg width="29" height="24" viewBox="0 0 29 24" fill="none" xmlns="http://www.w3.org/2000/svg">
<path fill-rule="evenodd" clip-rule="evenodd" d="M2.23077 16.0356H7.98615L9.43615 17.8174H1.11538L0 16.9265V0.890869L1.11538 0H27.8846L29 0.890869V9.38976L26.7692 6.27172V1.78174H2.23077V16.0356ZM14.5892 17.8174L11.4438 24H16.3515L28.9108 13.7194L27.2823 10.6904H23.6462L25.4754 8.08909L23.6238 5.34521H17.2215L15.1692 6.39644L10.0831 15.3051L12.1131 17.8174H14.5892ZM17.2215 7.12695H23.6238L19.4523 12.4722H27.2823L14.4331 22.8775L18.2031 16.0356H12.1131L17.2215 7.12695ZM10.9531 10.6904H4.46154V8.90869H11.9569L10.9531 10.6904ZM8.94538 14.2539H4.46154V12.4722H9.94923L8.94538 14.2539Z" fill="white"/>
</svg>
