<svg width="29" height="19" viewBox="0 0 29 19" fill="none" xmlns="http://www.w3.org/2000/svg">
<path fill-rule="evenodd" clip-rule="evenodd" d="M26.9286 2.11111V4.22222H2.07143V2.11111H26.9286ZM2.07143 6.33333H26.9286V16.8889H2.07143V6.33333ZM26.9286 0H2.07143C1.52205 0 0.995175 0.22242 0.606707 0.618331C0.218239 1.01424 0 1.55121 0 2.11111V16.8889C0 17.4488 0.218239 17.9858 0.606707 18.3817C0.995175 18.7776 1.52205 19 2.07143 19H26.9286C27.4779 19 28.0048 18.7776 28.3933 18.3817C28.7818 17.9858 29 17.4488 29 16.8889V2.11111C29 1.55121 28.7818 1.01424 28.3933 0.618331C28.0048 0.22242 27.4779 0 26.9286 0ZM20.7143 12.6667H24.8571V14.7778H20.7143V12.6667Z" fill="white"/>
</svg>
