<svg width="20" height="12" viewBox="0 0 20 12" fill="none" xmlns="http://www.w3.org/2000/svg">
<path d="M1.39062 0.0625H18.6094C18.8456 0.0625 19.0721 0.156333 19.2391 0.323358C19.4062 0.490382 19.5 0.716917 19.5 0.953125C19.5 1.18933 19.4062 1.41587 19.2391 1.58289C19.0721 1.74992 18.8456 1.84375 18.6094 1.84375H1.39062C1.15442 1.84375 0.927883 1.74992 0.760858 1.58289C0.593833 1.41587 0.5 1.18933 0.5 0.953125C0.5 0.716917 0.593833 0.490382 0.760858 0.323358C0.927883 0.156333 1.15442 0.0625 1.39062 0.0625ZM4.0625 5.70312C4.0625 5.46692 4.15633 5.24038 4.32336 5.07336C4.49038 4.90633 4.71692 4.8125 4.95312 4.8125H15.0469C15.2831 4.8125 15.5096 4.90633 15.6766 5.07336C15.8437 5.24038 15.9375 5.46692 15.9375 5.70312C15.9375 5.93933 15.8437 6.16587 15.6766 6.33289C15.5096 6.49992 15.2831 6.59375 15.0469 6.59375H4.95312C4.71692 6.59375 4.49038 6.49992 4.32336 6.33289C4.15633 6.16587 4.0625 5.93933 4.0625 5.70312ZM7.625 10.4531C7.625 10.2169 7.71883 9.99038 7.88586 9.82336C8.05288 9.65633 8.27942 9.5625 8.51562 9.5625H11.4844C11.7206 9.5625 11.9471 9.65633 12.1141 9.82336C12.2812 9.99038 12.375 10.2169 12.375 10.4531C12.375 10.6893 12.2812 10.9159 12.1141 11.0829C11.9471 11.2499 11.7206 11.3438 11.4844 11.3438H8.51562C8.27942 11.3438 8.05288 11.2499 7.88586 11.0829C7.71883 10.9159 7.625 10.6893 7.625 10.4531Z" fill="white"/>
</svg>
