<svg width="33" height="32" viewBox="0 0 33 32" fill="none" xmlns="http://www.w3.org/2000/svg">
<path fill-rule="evenodd" clip-rule="evenodd" d="M16.5 5C10.4249 5 5.5 9.92487 5.5 16C5.5 22.0751 10.4249 27 16.5 27C22.5751 27 27.5 22.0751 27.5 16C27.5 9.92487 22.5751 5 16.5 5ZM3.5 16C3.5 8.8203 9.3203 3 16.5 3C23.6797 3 29.5 8.8203 29.5 16C29.5 23.1797 23.6797 29 16.5 29C9.3203 29 3.5 23.1797 3.5 16Z" fill="#0ACF83"/>
<path fill-rule="evenodd" clip-rule="evenodd" d="M16.5 10C16.7652 10 17.0195 10.1054 17.2071 10.2929L21.4446 14.5304C21.8351 14.9209 21.8351 15.5541 21.4446 15.9446C21.054 16.3351 20.4209 16.3351 20.0303 15.9446L16.5 12.4142L12.9696 15.9446C12.579 16.3351 11.9459 16.3351 11.5553 15.9446C11.1648 15.5541 11.1648 14.9209 11.5553 14.5304L15.7928 10.2929C15.9804 10.1054 16.2347 10 16.5 10Z" fill="#0ACF83"/>
<path fill-rule="evenodd" clip-rule="evenodd" d="M16.5 10C17.0523 10 17.5 10.4477 17.5 11L17.5 21C17.5 21.5523 17.0523 22 16.5 22C15.9477 22 15.5 21.5523 15.5 21L15.5 11C15.5 10.4477 15.9477 10 16.5 10Z" fill="#0ACF83"/>
</svg>
